<svg width="162" height="35" viewBox="0 0 162 35" fill="none" xmlns="http://www.w3.org/2000/svg">
<path d="M34.8718 0.00797244H0C0.633158 4.01811 1.00183 8.7378 1.00183 13.8003C1.00183 18.8628 0.633158 23.5825 0 27.5847H34.8718C34.2386 23.5745 33.8699 18.8548 33.8699 13.7923C33.8699 8.72983 34.2386 4.01014 34.8718 0V0.00797244Z" fill="#66C600"/>
<path d="M34.8718 31.2121H0V34.7041H34.8718V31.2121Z" fill="#66C600"/>
<path d="M44.7699 27.5847V6.85633H49.5387V9.0647C50.6928 7.68547 52.48 6.45771 55.2531 6.45771C57.7537 6.45771 59.6211 7.56588 60.7752 9.34373C62.0495 8.00436 64.0292 6.45771 67.243 6.45771C71.5309 6.45771 74.312 9.46332 74.312 13.9199V27.5847H69.5512V15.2992C69.5512 12.732 68.5975 10.8744 66.0569 10.8744C64.0292 10.8744 61.9293 12.453 61.9293 15.4187V27.5847H57.1686V15.2992C57.1686 12.732 56.2149 10.8744 53.6742 10.8744C51.6465 10.8744 49.5467 12.453 49.5467 15.4187V27.5847H44.7699Z" fill="black"/>
<path d="M86.6625 27.5847C80.908 27.5847 76.8205 23.3274 76.8205 17.0212C76.8205 10.715 80.908 6.45771 86.6625 6.45771C92.417 6.45771 96.5045 10.715 96.5045 17.0212C96.5045 23.3274 92.417 27.5847 86.6625 27.5847ZM86.6625 23.6782C89.8123 23.6782 91.7999 21.1669 91.7999 17.0212C91.7999 12.8755 89.8123 10.3642 86.6625 10.3642C83.5128 10.3642 81.5251 12.8755 81.5251 17.0212C81.5251 21.1669 83.5128 23.6782 86.6625 23.6782Z" fill="black"/>
<path d="M102.507 20.5052C103.718 22.4823 106.05 23.7978 108.422 23.7978C110.41 23.7978 112.237 23.1042 112.237 21.2865C112.237 19.4687 110.522 19.3492 107.292 18.6954C104.062 18.0337 100.368 17.2285 100.368 12.8915C100.368 9.17632 103.638 6.46569 108.342 6.46569C111.925 6.46569 115.114 8.0522 116.589 10.3004L113.439 13.1227C112.269 11.305 110.33 10.2606 108.07 10.2606C106.162 10.2606 104.92 11.1136 104.92 12.4689C104.92 13.9359 106.395 14.2149 108.967 14.7491C112.43 15.4825 116.79 16.216 116.79 20.8639C116.79 24.9618 113.015 27.6006 108.39 27.6006C104.615 27.6006 100.84 26.0938 99.0131 23.3035L102.515 20.5211L102.507 20.5052Z" fill="black"/>
<path d="M129.132 27.5847C123.378 27.5847 119.29 23.3274 119.29 17.0212C119.29 10.715 123.378 6.45771 129.132 6.45771C134.887 6.45771 138.974 10.715 138.974 17.0212C138.974 23.3274 134.887 27.5847 129.132 27.5847ZM129.132 23.6782C132.282 23.6782 134.27 21.1669 134.27 17.0212C134.27 12.8755 132.282 10.3642 129.132 10.3642C125.982 10.3642 123.995 12.8755 123.995 17.0212C123.995 21.1669 125.982 23.6782 129.132 23.6782Z" fill="black"/>
<path d="M151.325 27.5847C145.57 27.5847 141.483 23.3274 141.483 17.0212C141.483 10.715 145.57 6.45771 151.325 6.45771C157.079 6.45771 161.167 10.715 161.167 17.0212C161.167 23.3274 157.079 27.5847 151.325 27.5847ZM151.325 23.6782C154.474 23.6782 156.462 21.1669 156.462 17.0212C156.462 12.8755 154.474 10.3642 151.325 10.3642C148.175 10.3642 146.187 12.8755 146.187 17.0212C146.187 21.1669 148.175 23.6782 151.325 23.6782Z" fill="black"/>
</svg>
